# xmcd CD database file generated by Grip 3.0.7
# 
# Track frame offsets:
#       150
#       24703
#       49131
#       74958
#       107260
#       134562
#       168464
#       192177
#       223895
#       256373
# 
# Disc length: 3974 seconds
# 
# Revision: 6
# Processed by: cddbd v1.5.1PL2 Copyright (c) Steve Scherf et al.
# Submitted via: Grip 3.0.7
# 
DISCID=9d0f840a
DTITLE=Ghulam Ali - Ten Great Ghazals
DYEAR=2002
DGENRE=Blues
TTITLE0=Main Nazar Se Pee Rahaa Hoon
TTITLE1=Yeh Baatein Jhooti Baatein
TTITLE2=Patta Patta Boota Boota
TTITLE3=Roya Karenge Aap Bhi
TTITLE4=Kiyaa Hai Pyaar Jise
TTITLE5=Jinke Honton Pe Hasee
TTITLE6=Musafir Chalte Chalte
TTITLE7=Kabhee Aah Lab Pe Machal Gayi
TTITLE8=Dilwaalon Kya Dekh Rahe Ho
TTITLE9=Chhedkar Tazkira-e-Daur
EXTD=YEAR: 2002 ID3G:   0
EXTT0=
EXTT1=
EXTT2=
EXTT3=
EXTT4=
EXTT5=
EXTT6=
EXTT7=
EXTT8=
EXTT9=
PLAYORDER=
